<?xml version="1.0" standalone="no"?>
<!DOCTYPE svg PUBLIC "-//W3C//DTD SVG 20010904//EN"
 "http://www.w3.org/TR/2001/REC-SVG-20010904/DTD/svg10.dtd">
<svg version="1.0" xmlns="http://www.w3.org/2000/svg"
 width="2992.000000pt" height="2992.000000pt" viewBox="0 0 2992.000000 2992.000000"
 preserveAspectRatio="xMidYMid meet">

<g transform="translate(0.000000,2992.000000) scale(0.100000,-0.100000)"
fill="#000000" stroke="none">
<path d="M20470 29125 c-112 -20 -169 -40 -234 -83 -78 -52 -112 -104 -120
-184 -13 -124 21 -202 109 -254 83 -48 125 -55 380 -63 209 -6 245 -9 280 -26
46 -23 57 -60 31 -100 -32 -48 -70 -59 -206 -60 -145 0 -175 10 -203 68 l-19
37 -189 0 -190 0 7 -47 c10 -71 27 -107 74 -152 52 -50 104 -74 235 -109 91
-24 117 -26 290 -27 166 0 202 3 279 23 123 31 199 67 242 115 54 59 67 99 67
205 1 86 -1 95 -29 134 -65 92 -200 128 -480 128 -221 0 -279 15 -298 76 -9
30 24 68 72 82 58 18 235 15 280 -3 43 -18 82 -53 82 -72 0 -10 39 -13 190
-13 l190 0 -7 48 c-18 139 -93 206 -291 259 -84 22 -121 26 -282 29 -126 2
-209 -1 -260 -11z"/>
<path d="M22170 29125 c-108 -19 -160 -38 -229 -79 -71 -43 -93 -71 -115 -145
-43 -145 11 -262 146 -320 71 -30 94 -33 338 -40 204 -6 240 -10 275 -26 33
-17 41 -26 43 -53 6 -64 -51 -101 -171 -108 -153 -11 -245 19 -261 82 l-6 24
-190 0 c-215 0 -203 6 -175 -87 36 -123 128 -184 340 -228 293 -61 656 -6 773
117 85 90 95 284 19 366 -65 70 -215 103 -464 101 -121 0 -174 4 -217 16 -101
29 -112 95 -23 135 33 15 65 20 149 20 59 0 119 -5 135 -11 47 -17 93 -53 93
-71 0 -17 16 -18 190 -18 l190 0 0 25 c0 45 -39 138 -72 173 -45 46 -113 79
-227 109 -83 23 -121 26 -281 29 -126 2 -209 -1 -260 -11z"/>
<path d="M4380 28630 l0 -480 185 0 185 0 0 170 0 170 230 0 230 0 0 -170 0
-170 185 0 185 0 0 480 0 480 -185 0 -185 0 0 -165 0 -165 -230 0 -230 0 0
165 0 165 -185 0 -185 0 0 -480z"/>
<path d="M5670 28630 l0 -480 190 0 190 0 0 480 0 480 -190 0 -190 0 0 -480z"/>
<path d="M6140 28630 l0 -480 185 0 185 0 2 174 3 174 90 -174 89 -174 168 0
167 0 85 173 84 172 1 -172 1 -173 185 0 185 0 0 480 0 480 -203 0 -202 0 -64
-132 c-199 -410 -233 -478 -239 -478 -4 0 -21 31 -39 68 -18 37 -85 174 -149
305 l-116 237 -209 0 -209 0 0 -480z"/>
<path d="M7670 28631 l0 -481 180 0 180 0 0 155 0 155 239 0 c227 0 244 1 318
25 95 30 151 69 195 137 31 49 33 59 36 151 4 90 2 102 -23 152 -32 63 -80
104 -173 148 l-67 32 -442 3 -443 3 0 -480z m807 207 c22 -23 22 -83 0 -106
-15 -15 -45 -17 -232 -20 l-215 -3 0 76 0 76 215 -3 c188 -3 216 -5 232 -20z"/>
<path d="M8882 28828 c4 -259 7 -288 26 -342 79 -216 279 -346 557 -363 254
-15 488 111 588 316 l42 86 3 293 3 292 -190 0 -191 0 0 -245 c0 -283 -6 -327
-57 -378 -35 -37 -108 -67 -162 -67 -53 0 -144 33 -175 65 -51 50 -56 85 -56
369 l0 256 -196 0 -196 0 4 -282z"/>
<path d="M10180 28630 l0 -480 185 0 185 0 0 273 0 272 266 -272 266 -273 189
0 189 0 0 480 0 480 -185 0 -185 0 0 -265 c0 -146 -3 -265 -6 -265 -4 0 -124
119 -266 265 l-260 265 -189 0 -189 0 0 -480z"/>
<path d="M11951 29027 c-110 -205 -83 -155 -322 -595 -82 -150 -149 -275 -149
-277 0 -3 83 -5 184 -5 l184 0 39 73 39 72 256 3 256 2 41 -75 42 -75 185 0
185 0 -12 23 c-42 79 -228 421 -311 571 -54 98 -98 180 -98 182 0 3 -23 45
-51 94 l-50 90 -187 0 -187 0 -44 -83z m269 -319 c0 -4 20 -44 45 -89 25 -45
45 -83 45 -85 0 -2 -57 -4 -126 -4 -146 0 -140 -15 -57 133 l56 100 18 -24
c10 -13 19 -27 19 -31z"/>
<path d="M12910 28630 l0 -480 185 0 185 0 0 268 0 267 267 -267 266 -268 188
0 189 0 0 480 0 480 -190 0 -190 0 0 -269 0 -270 -267 270 -266 269 -184 0
-183 0 0 -480z"/>
<path d="M14670 28630 l0 -480 185 0 185 0 2 169 3 170 86 -167 87 -167 169
-3 169 -2 79 162 80 163 3 -162 2 -163 190 0 190 0 0 480 0 480 -204 0 -205 0
-59 -122 c-33 -68 -101 -208 -152 -312 l-92 -189 -80 164 c-43 90 -112 230
-151 311 l-72 147 -207 1 -208 0 0 -480z"/>
<path d="M16600 29048 c-18 -35 -68 -126 -110 -203 -43 -77 -110 -201 -150
-275 -40 -74 -89 -164 -108 -200 -19 -36 -48 -90 -64 -120 -16 -30 -33 -59
-38 -64 -6 -6 -10 -16 -10 -23 0 -10 40 -13 184 -13 l184 0 22 48 c12 26 31
59 42 75 l19 27 252 0 252 0 40 -75 40 -75 188 0 187 0 -14 23 c-12 19 -137
249 -251 462 -36 66 -74 138 -140 260 -24 44 -59 109 -79 145 l-35 65 -189 3
-190 2 -32 -62z m291 -406 l59 -112 -130 0 -131 0 42 78 c24 42 52 94 64 114
11 21 24 37 28 35 5 -1 35 -53 68 -115z"/>
<path d="M17550 28630 l0 -480 185 0 185 0 0 170 0 170 225 0 225 0 0 -170 0
-170 185 0 185 0 0 480 0 480 -185 0 -185 0 0 -165 0 -165 -225 0 -225 0 0
165 0 165 -185 0 -185 0 0 -480z"/>
<path d="M19247 29048 c-212 -389 -281 -515 -317 -583 -23 -44 -55 -102 -70
-130 -15 -27 -44 -80 -64 -117 l-36 -68 185 0 184 0 42 75 41 75 256 -2 256
-3 39 -72 39 -73 184 0 c101 0 184 3 184 8 0 4 -8 21 -18 37 -11 17 -66 118
-124 225 -58 107 -122 227 -143 265 -21 39 -50 93 -65 120 -15 28 -50 93 -79
145 -28 52 -59 110 -68 128 l-17 32 -187 0 -188 0 -34 -62z m286 -397 c31 -60
57 -112 57 -115 0 -3 -57 -6 -126 -6 -69 0 -124 3 -122 8 18 42 121 222 126
222 4 0 33 -49 65 -109z"/>
<path d="M21380 28630 l0 -480 185 0 185 0 0 480 0 480 -185 0 -185 0 0 -480z"/>
<path d="M22980 29105 c0 -5 48 -99 175 -340 29 -55 78 -149 110 -210 32 -60
80 -153 107 -205 28 -52 64 -119 80 -148 l30 -52 186 2 187 3 9 30 c5 17 19
59 31 95 13 36 42 125 65 199 l43 134 71 -229 72 -229 188 0 189 0 34 60 c18
33 39 71 45 85 7 14 44 84 84 155 39 72 97 180 129 240 32 61 61 115 65 120 4
6 38 69 75 140 37 72 72 136 78 143 7 9 -30 12 -181 12 -172 0 -190 -2 -195
-17 -4 -10 -21 -45 -40 -78 -18 -33 -80 -147 -137 -253 l-104 -194 -48 144
c-27 78 -68 200 -91 271 l-41 127 -187 0 -186 0 -27 -72 c-15 -40 -38 -102
-50 -138 -13 -36 -35 -96 -49 -135 -13 -38 -35 -98 -47 -133 l-22 -62 -18 32
c-31 59 -203 392 -233 451 l-30 57 -183 0 c-101 0 -184 -2 -184 -5z"/>
<path d="M25150 29100 c0 -5 -38 -78 -84 -162 -204 -374 -291 -533 -383 -706
l-44 -82 186 2 187 3 38 70 38 70 256 3 255 2 42 -75 41 -75 184 0 c170 0 183
1 177 17 -4 10 -50 97 -103 193 -53 96 -117 213 -142 260 -25 47 -63 117 -83
155 -21 39 -50 93 -65 120 -15 28 -46 87 -71 133 l-43 82 -193 0 c-120 0 -193
-4 -193 -10z m264 -454 c31 -57 56 -107 56 -110 0 -3 -57 -6 -126 -6 -69 0
-124 4 -122 8 23 55 121 221 128 217 5 -3 34 -52 64 -109z"/>
<path d="M15775 26714 c-89 -11 -208 -40 -263 -65 -196 -88 -320 -245 -328
-416 -7 -134 34 -232 141 -338 131 -131 287 -189 510 -189 219 0 379 58 506
184 230 229 164 581 -139 738 -111 58 -316 99 -427 86z m183 -310 c93 -46 140
-138 121 -239 -11 -61 -21 -76 -75 -123 -118 -104 -325 -69 -396 67 -35 66
-36 119 -4 186 26 56 42 73 106 109 65 37 174 37 248 0z"/>
<path d="M5362 26543 l3 -148 198 -3 197 -2 0 -330 0 -330 190 0 190 0 0 330
0 330 195 0 195 0 0 150 0 150 -585 0 -586 0 3 -147z"/>
<path d="M6600 26210 l0 -480 530 0 530 0 0 130 0 130 -345 0 -345 0 0 45 0
45 290 0 290 0 0 130 0 130 -287 2 -288 3 -3 43 -3 42 345 0 346 0 0 130 0
130 -530 0 -530 0 0 -480z"/>
<path d="M7730 26210 l0 -480 185 0 185 0 2 190 3 190 170 -190 170 -190 218
0 219 0 -27 33 c-15 17 -91 100 -169 182 -228 241 -276 294 -276 303 0 8 85
91 373 364 l82 78 -224 0 -225 0 -158 -157 -158 -157 0 157 0 157 -185 0 -185
0 0 -480z"/>
<path d="M8900 26210 l0 -480 185 0 185 0 1 273 0 272 267 -273 267 -272 188
0 187 0 0 480 0 480 -185 0 -185 0 -2 -266 -3 -265 -265 265 -265 266 -187 0
-188 0 0 -480z"/>
<path d="M10270 26210 l0 -480 190 0 190 0 0 480 0 480 -190 0 -190 0 0 -480z"/>
<path d="M10740 26210 l0 -480 185 0 185 0 2 187 3 186 169 -186 168 -187 220
0 220 0 -128 138 c-71 75 -160 171 -200 212 -39 41 -91 97 -115 123 l-43 48
119 112 c66 62 169 160 230 219 l110 108 -220 0 -220 0 -157 -157 -158 -157 0
157 0 157 -185 0 -185 0 0 -480z"/>
<path d="M12300 26210 l0 -480 185 0 185 0 0 480 0 480 -185 0 -185 0 0 -480z"/>
<path d="M12760 26210 l0 -480 185 0 185 0 1 273 0 272 267 -273 267 -272 188
0 187 0 0 480 0 480 -185 0 -185 0 0 -272 -1 -273 -267 273 -267 273 -187 -1
-188 0 0 -480z"/>
<path d="M14130 26210 l0 -480 185 0 185 0 0 170 0 170 290 0 290 0 0 125 0
125 -290 0 -290 0 0 55 0 55 343 2 342 3 3 128 3 127 -531 0 -530 0 0 -480z"/>
<path d="M16550 26211 l0 -481 175 0 175 0 0 155 0 155 63 0 63 0 123 -147
c68 -82 129 -151 137 -156 7 -4 105 -6 218 -5 l205 3 -134 155 c-74 85 -135
158 -135 161 0 3 25 13 55 23 75 23 144 80 178 147 24 48 27 66 27 148 0 86
-2 98 -30 147 -36 63 -81 99 -170 140 l-65 29 -442 3 -443 3 0 -480z m789 215
c15 -14 21 -31 21 -62 0 -71 -10 -74 -252 -74 l-208 0 0 81 0 80 209 -3 c189
-3 211 -5 230 -22z"/>
<path d="M17780 26210 l0 -480 185 0 185 0 0 171 c0 93 3 168 8 165 4 -2 45
-79 92 -170 l85 -166 168 0 168 0 82 168 82 167 3 -167 2 -168 185 0 185 0 0
480 0 480 -202 0 -203 0 -57 -118 c-203 -419 -239 -492 -246 -491 -4 0 -19 26
-34 57 -15 31 -82 168 -148 305 l-121 247 -210 0 -209 0 0 -480z"/>
<path d="M19736 26668 c-13 -22 -181 -332 -251 -463 -70 -131 -118 -221 -135
-250 -10 -16 -41 -74 -69 -128 l-52 -97 188 2 188 3 15 30 c9 17 26 49 40 73
l24 42 255 -2 255 -3 37 -70 36 -70 188 -3 187 -2 -52 97 c-29 54 -65 121 -80
148 -15 28 -49 91 -75 140 -63 118 -121 225 -225 418 l-85 157 -187 0 c-184 0
-188 0 -202 -22z m269 -444 c30 -56 55 -104 55 -108 0 -3 -56 -6 -125 -6 -69
0 -125 2 -125 5 0 3 28 57 62 120 39 71 66 109 71 102 4 -7 32 -57 62 -113z"/>
<path d="M20342 26543 l3 -148 198 -3 197 -2 0 -330 0 -330 185 0 185 0 0 330
0 330 195 0 195 0 0 150 0 150 -580 0 -581 0 3 -147z"/>
<path d="M21580 26210 l0 -480 185 0 185 0 0 480 0 480 -185 0 -185 0 0 -480z"/>
<path d="M22040 26210 l0 -480 190 0 190 0 2 187 3 187 74 -85 c41 -46 110
-124 155 -173 45 -48 85 -94 89 -102 7 -12 74 -14 388 -14 l379 0 10 23 c5 12
22 45 38 72 l29 50 255 3 256 2 41 -75 42 -75 185 0 185 0 -12 23 c-10 19
-101 186 -227 417 -19 36 -53 99 -75 140 -22 41 -52 98 -67 125 -15 28 -48 91
-75 140 -26 50 -52 96 -58 103 -7 9 -58 12 -196 12 l-186 0 -57 -108 c-32 -59
-103 -190 -159 -292 -128 -236 -182 -336 -233 -432 -23 -43 -44 -78 -47 -78
-11 0 -439 459 -439 471 0 3 46 49 103 102 56 53 158 150 227 216 l125 120
-220 0 -220 0 -155 -151 -155 -151 -3 152 -3 151 -189 0 -190 0 0 -480z m1869
23 c33 -61 61 -114 61 -117 0 -3 -56 -6 -125 -6 -69 0 -125 3 -125 6 0 7 123
235 125 232 1 -2 30 -53 64 -115z"/>
<path d="M6520 24403 c-164 -18 -395 -69 -561 -124 -688 -229 -1279 -780
-1554 -1449 -50 -120 -55 -135 -89 -245 -44 -142 -82 -329 -98 -480 -20 -181
-19 -14111 0 -14300 20 -191 92 -498 148 -630 6 -16 24 -59 39 -95 228 -554
676 -1034 1222 -1309 272 -137 634 -240 918 -261 159 -12 16682 -12 16835 -1
290 23 637 120 905 253 519 259 937 682 1184 1198 56 117 108 244 116 281 2 9
14 49 28 90 40 119 65 235 89 405 l23 159 0 7060 0 7060 -23 160 c-43 303
-121 554 -258 826 -56 112 -69 135 -153 264 -262 402 -709 770 -1156 952 -164
67 -354 123 -545 160 l-145 28 -8445 1 c-4645 0 -8461 -1 -8480 -3z m12140
-1323 c0 -16 -27 -23 -55 -16 -39 10 -29 26 15 26 22 0 40 -5 40 -10z m868
-30 c117 -18 140 -20 287 -25 183 -7 324 -23 348 -40 16 -11 9 -14 -55 -19
-40 -3 -170 -8 -288 -10 -272 -7 -426 -20 -666 -56 -856 -130 -1616 -437
-2240 -905 -273 -206 -552 -483 -755 -751 -346 -457 -571 -1009 -635 -1558 -8
-72 -36 -106 -86 -107 -151 -3 -210 -1 -220 9 -11 11 -6 261 6 316 4 16 13 70
21 120 8 50 21 109 29 131 8 22 15 56 16 75 0 19 9 55 20 79 11 24 20 54 20
67 0 14 9 42 20 64 11 22 20 48 20 59 0 11 10 42 21 68 49 109 57 129 63 160
4 17 14 37 22 44 8 6 14 17 14 24 0 17 135 280 184 360 183 297 331 483 575
724 102 101 231 219 286 263 98 77 281 213 314 233 9 6 41 26 71 46 104 68
165 106 195 121 17 8 55 28 85 45 160 88 218 116 360 177 85 37 174 76 198 87
23 10 48 19 55 19 6 1 30 9 52 20 22 11 47 19 55 20 8 0 37 9 65 19 27 10 84
29 125 40 41 12 102 30 135 41 33 11 72 20 86 20 15 0 41 6 58 13 25 11 145
14 557 15 289 0 551 -3 582 -8z m-14297 -1174 c-12 -12 -21 -29 -21 -38 0 -9
-6 -21 -14 -27 -8 -7 -18 -26 -21 -42 -4 -16 -11 -32 -17 -35 -5 -3 -18 -25
-29 -48 -11 -22 -26 -52 -34 -66 -8 -14 -15 -32 -15 -41 0 -23 -26 -44 -35
-29 -11 17 4 63 26 78 12 8 19 25 19 47 0 24 6 38 20 45 11 6 20 21 20 35 0
13 4 27 10 30 5 3 26 32 47 63 20 31 42 60 48 64 20 14 17 -14 -4 -36z m-191
-384 c0 -16 -6 -36 -14 -47 -12 -17 -13 -17 -20 9 -7 27 7 66 24 66 6 0 10
-13 10 -28z m-50 -151 c0 -33 -15 -49 -23 -27 -7 18 3 56 14 56 5 0 9 -13 9
-29z m-53 -278 c-3 -10 -5 -2 -5 17 0 19 2 27 5 18 2 -10 2 -26 0 -35z m19
-519 c6 -106 6 -108 -12 -91 -21 19 -32 129 -19 194 11 60 23 20 31 -103z m44
-253 c6 -45 16 -95 21 -109 6 -15 17 -56 24 -92 15 -71 64 -241 96 -329 11
-31 26 -76 34 -101 27 -88 147 -391 197 -500 193 -419 408 -818 623 -1155 127
-199 276 -425 349 -527 23 -31 64 -90 91 -130 144 -207 506 -679 776 -1008
246 -301 698 -807 1033 -1160 171 -179 843 -847 1022 -1015 411 -387 892 -818
1204 -1080 52 -44 97 -83 100 -86 32 -35 1005 -826 1114 -904 15 -11 37 -28
49 -38 53 -45 513 -393 682 -517 402 -293 363 -265 610 -440 116 -82 228 -162
250 -178 118 -85 708 -480 955 -639 47 -30 130 -84 185 -120 89 -58 166 -106
413 -260 37 -23 94 -58 127 -78 33 -20 92 -56 130 -80 39 -24 103 -63 144 -87
40 -24 90 -53 110 -65 20 -12 43 -25 51 -29 8 -5 60 -36 116 -69 56 -34 108
-65 115 -69 8 -4 31 -17 51 -29 31 -18 191 -110 363 -208 22 -12 58 -33 80
-45 22 -13 67 -37 100 -55 33 -17 89 -48 125 -69 56 -32 114 -64 300 -163 122
-65 256 -134 574 -296 198 -101 366 -186 375 -191 18 -9 134 -64 286 -135 55
-26 132 -62 170 -80 164 -78 249 -116 405 -184 91 -40 179 -79 195 -86 50 -23
117 -52 185 -80 36 -15 79 -33 95 -40 32 -14 130 -55 205 -85 25 -10 72 -29
105 -43 33 -13 87 -35 120 -47 33 -12 78 -31 101 -41 23 -11 45 -19 50 -19 5
0 53 -18 107 -40 53 -22 102 -40 108 -40 6 0 25 -7 42 -15 36 -16 100 -40 167
-61 25 -8 54 -18 65 -24 22 -10 115 -43 185 -65 76 -24 143 -46 180 -60 58
-22 132 -46 187 -60 28 -7 56 -16 62 -20 13 -8 135 -44 346 -104 39 -11 111
-32 160 -46 50 -14 115 -32 145 -40 30 -8 73 -19 95 -25 110 -29 166 -42 233
-55 40 -8 78 -17 85 -22 6 -4 44 -13 82 -19 39 -7 99 -19 135 -27 80 -19 155
-34 240 -48 36 -6 95 -17 131 -25 37 -8 109 -19 160 -25 52 -6 110 -14 129
-19 20 -5 92 -14 160 -20 68 -6 167 -17 219 -24 128 -18 234 -21 641 -20 266
1 367 5 440 18 52 8 133 20 180 26 47 5 117 17 155 25 151 33 292 68 325 80
19 7 60 21 90 30 59 18 221 80 248 95 65 35 194 91 199 87 3 -4 -7 -12 -23
-19 -16 -7 -32 -17 -36 -22 -18 -27 -383 -196 -422 -196 -6 0 -29 -9 -51 -20
-22 -11 -49 -20 -60 -20 -11 0 -46 -9 -78 -20 -31 -11 -66 -20 -78 -20 -12 0
-56 -9 -98 -19 -205 -53 -549 -86 -886 -85 -246 0 -540 15 -655 34 -36 6 -121
17 -190 24 -147 17 -409 54 -420 61 -4 3 -50 11 -101 19 -194 31 -595 121
-894 201 -55 15 -127 34 -160 41 -33 8 -67 18 -75 23 -9 5 -31 12 -50 16 -19
4 -73 18 -120 32 -47 14 -119 35 -160 47 -41 12 -85 28 -97 34 -12 7 -31 12
-43 12 -12 0 -42 8 -68 18 -59 23 -133 49 -192 67 -49 14 -81 25 -180 61 -357
128 -514 186 -564 208 -32 14 -64 26 -70 26 -6 0 -28 9 -49 20 -20 11 -42 20
-48 20 -7 0 -30 9 -53 19 -23 10 -77 33 -121 49 -44 17 -93 38 -110 46 -16 9
-35 16 -42 16 -6 0 -24 7 -40 15 -15 8 -55 25 -88 39 -59 23 -241 101 -320
136 -22 9 -58 25 -80 35 -22 9 -58 25 -80 36 -22 10 -76 33 -120 52 -93 40
-184 82 -460 212 -143 67 -857 423 -1000 498 -66 35 -178 94 -250 132 -71 37
-184 98 -250 135 -66 37 -151 84 -190 105 -38 21 -177 99 -307 174 -131 75
-252 143 -268 153 -17 9 -39 23 -49 32 -10 9 -22 16 -28 16 -5 0 -18 9 -28 20
-21 23 -55 27 -55 6 0 -8 10 -21 23 -28 13 -7 37 -22 55 -33 l32 -20 0 -1582
0 -1582 -21 -20 c-36 -34 -249 -42 -269 -11 -6 9 -10 662 -10 1678 0 1440 2
1662 14 1662 8 0 18 -5 22 -11 3 -6 19 -9 34 -6 22 5 29 1 38 -19 12 -24 36
-31 61 -15 11 7 9 13 -8 30 -11 11 -30 21 -41 21 -11 0 -20 5 -20 10 0 6 -12
16 -27 22 -16 7 -35 17 -43 23 -8 7 -31 18 -50 25 -19 8 -48 24 -63 37 -16 13
-35 23 -42 23 -7 0 -20 6 -27 13 -12 12 -88 59 -156 97 -15 8 -52 32 -83 53
-31 20 -61 37 -66 37 -6 0 -17 7 -24 17 -8 9 -27 22 -44 30 -38 17 -62 32 -98
61 -16 12 -33 22 -38 22 -6 0 -34 18 -63 40 -29 22 -57 40 -62 40 -10 0 -27
12 -84 58 -15 12 -32 22 -36 22 -5 0 -31 16 -59 35 -27 20 -68 47 -90 62 -22
14 -60 41 -84 60 -24 18 -52 33 -62 33 -11 0 -19 6 -19 13 0 17 -78 69 -97 65
-10 -2 -5 -15 18 -46 26 -35 37 -43 56 -39 17 3 26 -1 30 -12 2 -9 9 -24 14
-33 14 -27 11 -50 -11 -93 -20 -39 -20 -59 -20 -1931 l0 -1891 -31 -59 c-77
-143 -240 -343 -311 -380 -23 -12 -282 -14 -1734 -14 l-1707 0 -49 -31 c-26
-17 -48 -37 -48 -44 0 -29 -157 -54 -360 -58 l-115 -2 -9 85 c-10 88 -15 4052
-6 4365 l5 170 -80 7 c-44 4 -145 11 -225 17 -179 13 -192 16 -184 46 5 19 -4
27 -72 60 l-77 38 -392 -6 c-286 -4 -399 -9 -416 -18 -40 -21 -99 -72 -99 -85
0 -19 -79 -32 -274 -45 -149 -10 -180 -9 -191 2 -27 29 -35 498 -37 2186 -1
920 1 1675 4 1679 4 3 337 1 739 -6 l733 -12 43 -49 c52 -57 121 -114 130
-106 3 3 -30 40 -73 82 -44 41 -88 84 -99 95 -12 11 -24 20 -29 20 -16 0 -725
708 -801 800 -21 25 -70 79 -109 120 -39 41 -112 117 -162 170 -157 165 -199
211 -209 230 -5 10 -68 82 -139 159 -72 78 -137 153 -146 167 -10 13 -49 61
-89 105 -40 43 -102 116 -137 161 -36 46 -82 101 -102 123 -20 22 -57 67 -81
100 -25 33 -66 85 -91 115 -26 30 -61 75 -77 100 -17 25 -42 56 -55 70 -14 14
-49 59 -79 100 -30 41 -61 82 -71 92 -9 9 -33 42 -54 74 -20 32 -54 79 -75
104 -22 26 -39 50 -39 54 0 4 -20 32 -45 60 -25 29 -45 57 -45 62 0 5 -17 32
-38 59 -21 28 -48 68 -61 90 -13 22 -34 51 -46 65 -12 14 -31 41 -41 60 -10
19 -30 49 -44 66 -23 28 -53 74 -103 158 -10 17 -32 48 -48 68 -16 20 -29 40
-29 45 0 4 -18 35 -40 68 -22 33 -40 65 -40 71 0 6 -11 23 -25 38 -14 15 -25
32 -25 38 0 6 -6 19 -14 27 -8 9 -28 42 -45 74 -17 32 -37 65 -46 73 -8 9 -15
24 -15 33 0 10 -7 24 -15 31 -8 6 -30 44 -50 83 -20 40 -47 90 -59 112 -13 22
-47 87 -75 145 -29 58 -57 112 -62 120 -5 8 -14 26 -20 40 -6 14 -15 32 -20
40 -5 8 -14 26 -20 40 -43 95 -63 138 -75 162 -8 14 -14 33 -14 41 0 8 -9 26
-20 40 -11 14 -23 40 -26 59 -4 18 -13 40 -20 49 -8 8 -17 31 -20 50 -4 19
-15 45 -26 58 -10 13 -18 38 -18 55 0 17 -9 45 -20 61 -11 17 -20 42 -20 56 0
15 -9 38 -20 52 -12 15 -20 40 -20 62 0 22 -8 47 -20 62 -11 15 -20 41 -20 61
0 19 -9 50 -21 69 -14 22 -22 53 -23 91 -1 42 -8 65 -25 89 -19 25 -23 39 -18
70 5 29 1 50 -18 88 -25 51 -31 112 -19 175 10 46 20 21 34 -79z m9414 -1350
c18 -20 16 -47 -9 -111 -8 -19 -16 -78 -18 -130 -2 -58 -10 -107 -19 -125 -9
-17 -18 -69 -20 -122 -4 -57 -11 -99 -19 -109 -8 -10 -16 -54 -20 -105 -4 -51
-13 -98 -21 -111 -8 -13 -18 -56 -21 -96 -4 -47 -13 -84 -26 -106 -15 -24 -21
-50 -21 -91 0 -42 -5 -64 -20 -82 -15 -19 -20 -41 -20 -83 0 -44 -4 -61 -20
-75 -15 -14 -20 -31 -20 -70 0 -37 -6 -60 -20 -78 -13 -17 -20 -40 -20 -71 0
-31 -6 -51 -19 -63 -11 -11 -20 -38 -23 -66 -3 -26 -13 -56 -22 -66 -9 -10
-20 -41 -25 -69 -4 -27 -15 -58 -24 -67 -25 -25 -22 -86 6 -110 33 -29 87 -65
97 -65 5 0 21 -11 36 -25 15 -14 32 -25 39 -25 6 0 36 -18 65 -40 29 -22 61
-40 70 -40 9 0 26 -11 38 -25 12 -14 29 -25 37 -25 8 0 36 -15 62 -34 27 -18
58 -36 69 -40 12 -4 29 -15 39 -26 10 -11 28 -20 41 -20 13 0 27 -6 31 -14 4
-8 24 -21 43 -30 19 -9 53 -27 75 -41 40 -23 148 -82 225 -120 22 -12 45 -26
52 -33 7 -7 19 -12 29 -12 9 0 28 -9 42 -20 14 -11 32 -20 40 -20 8 0 26 -9
40 -20 14 -11 32 -20 40 -20 8 0 26 -9 40 -20 14 -11 34 -20 45 -20 11 0 25
-7 32 -14 6 -8 28 -20 48 -27 20 -6 44 -17 52 -24 8 -7 26 -16 40 -20 14 -4
39 -16 56 -26 17 -11 40 -19 51 -19 11 0 28 -9 38 -20 10 -11 30 -20 45 -20
15 0 35 -9 45 -20 10 -11 28 -20 40 -20 12 0 34 -9 48 -20 37 -29 65 -26 73 8
4 15 15 38 26 51 10 13 18 37 18 53 0 17 9 41 20 55 11 14 20 39 20 55 0 17 9
41 20 55 11 14 20 39 20 55 0 17 9 41 20 55 11 14 20 40 20 58 0 18 8 43 19
56 10 13 21 43 24 67 3 24 13 52 22 62 9 10 19 38 22 62 3 24 14 54 24 67 11
13 19 40 19 60 0 20 9 47 20 61 12 15 20 41 20 63 0 23 8 49 20 64 13 16 20
41 20 67 0 24 8 53 20 71 11 17 20 46 20 65 0 19 9 49 20 65 12 17 20 47 20
70 0 22 8 52 17 65 9 13 20 51 24 83 4 32 15 67 24 77 10 11 20 41 22 67 3 26
14 66 24 89 10 22 19 58 19 80 0 22 9 52 20 69 13 20 20 47 20 78 0 34 6 57
20 74 14 19 20 41 20 80 0 40 6 63 25 93 14 22 28 40 31 40 3 0 30 -21 59 -46
l54 -46 -5 -66 c-4 -42 -13 -77 -25 -94 -12 -18 -19 -44 -19 -75 0 -30 -7 -60
-20 -81 -11 -18 -20 -49 -20 -70 0 -21 -8 -54 -19 -74 -10 -20 -21 -60 -24
-89 -4 -28 -14 -60 -23 -70 -9 -10 -19 -44 -23 -76 -4 -32 -15 -70 -24 -83 -9
-13 -17 -41 -17 -62 0 -21 -9 -52 -20 -70 -11 -18 -20 -49 -20 -68 0 -19 -9
-50 -20 -68 -11 -18 -20 -50 -20 -71 0 -23 -8 -48 -20 -64 -12 -15 -20 -40
-20 -65 0 -24 -8 -49 -20 -65 -11 -14 -20 -40 -20 -59 0 -18 -9 -46 -20 -63
-11 -16 -20 -43 -20 -60 0 -16 -8 -44 -18 -60 -10 -17 -21 -50 -25 -73 -3 -24
-12 -51 -21 -61 -9 -10 -20 -38 -24 -63 -5 -25 -16 -56 -25 -69 -10 -13 -17
-36 -17 -52 0 -16 -9 -40 -20 -54 -11 -14 -20 -37 -20 -52 0 -14 -9 -39 -20
-56 -11 -16 -20 -43 -20 -58 0 -16 -9 -40 -20 -54 -12 -15 -20 -41 -20 -62 0
-33 5 -38 50 -63 28 -16 61 -28 73 -28 13 0 32 -8 41 -19 9 -10 33 -21 53 -24
19 -4 43 -13 53 -22 10 -9 35 -19 56 -22 22 -3 50 -14 63 -25 13 -10 36 -18
51 -18 15 0 38 -8 51 -18 13 -11 41 -22 63 -25 21 -3 46 -13 56 -22 10 -9 35
-19 56 -22 22 -3 50 -14 63 -25 13 -10 36 -18 52 -18 15 0 45 -11 65 -25 20
-14 50 -25 67 -25 17 0 40 -9 53 -21 12 -11 43 -23 70 -27 56 -8 63 -24 13
-33 -19 -3 -40 -9 -47 -13 -18 -11 -15 -26 6 -26 23 0 64 -29 42 -30 -8 0 -24
-3 -35 -6 -13 -3 -30 3 -44 15 -18 16 -38 21 -76 21 -35 0 -57 5 -65 15 -7 9
-29 15 -54 15 -24 0 -53 8 -71 20 -16 11 -46 20 -65 20 -19 0 -48 9 -65 20
-16 11 -43 20 -60 20 -16 0 -43 9 -60 20 -16 11 -43 20 -58 20 -16 0 -40 9
-54 20 -14 11 -40 20 -57 20 -17 0 -44 9 -61 20 -16 11 -41 20 -53 20 -13 0
-35 9 -49 20 -14 11 -39 20 -55 20 -17 0 -41 9 -55 20 -14 11 -38 20 -52 20
-34 0 -81 -47 -81 -82 0 -14 -9 -37 -20 -51 -11 -14 -20 -33 -20 -44 0 -10 -9
-32 -19 -49 -10 -17 -22 -45 -25 -62 -4 -17 -13 -36 -21 -42 -7 -6 -16 -26
-19 -44 -4 -19 -13 -39 -21 -46 -8 -7 -17 -27 -21 -46 -3 -18 -12 -38 -20 -45
-8 -6 -14 -17 -14 -23 0 -16 -152 -327 -237 -484 -23 -42 -48 -91 -56 -108 -8
-17 -20 -34 -25 -38 -6 -3 -13 -19 -17 -35 -3 -16 -15 -37 -26 -47 -10 -9 -19
-23 -19 -30 0 -7 -15 -34 -32 -60 l-33 -46 30 -24 c17 -14 67 -43 113 -66 45
-22 85 -45 88 -49 3 -5 13 -9 23 -9 10 0 29 -8 42 -19 13 -10 35 -22 49 -26
14 -4 32 -13 40 -20 8 -7 26 -16 40 -20 14 -4 36 -16 49 -26 13 -11 34 -19 46
-19 12 0 30 -9 40 -20 10 -11 28 -20 40 -20 11 0 36 -11 55 -25 19 -14 44 -25
55 -25 12 0 30 -9 40 -20 10 -11 29 -20 43 -20 13 0 37 -11 54 -25 16 -14 40
-25 53 -25 31 0 55 -28 34 -41 -8 -5 -20 -9 -26 -9 -17 0 -17 -22 -1 -38 10
-10 10 -15 -2 -22 -22 -14 -43 -12 -66 5 -10 8 -33 15 -50 15 -17 0 -43 9 -57
20 -14 11 -38 20 -54 20 -15 0 -41 9 -58 20 -16 11 -42 20 -56 20 -15 0 -32 7
-39 15 -7 8 -20 15 -29 15 -9 0 -34 9 -56 20 -22 11 -43 20 -48 20 -4 0 -34
12 -65 26 -124 57 -148 67 -162 76 -8 4 -26 13 -40 18 -14 6 -32 15 -40 20 -8
6 -26 15 -40 21 -14 6 -32 15 -40 20 -8 5 -30 16 -48 25 -31 14 -36 14 -58 -1
-14 -9 -29 -28 -35 -43 -5 -15 -16 -31 -22 -37 -7 -5 -27 -35 -45 -66 -18 -31
-39 -62 -47 -69 -8 -7 -15 -17 -15 -22 0 -5 -15 -30 -32 -55 -47 -65 -112
-160 -153 -220 -19 -28 -48 -66 -65 -85 -17 -18 -38 -46 -46 -63 -7 -16 -32
-50 -55 -75 -22 -25 -55 -67 -73 -95 -18 -27 -54 -72 -79 -100 -26 -27 -47
-56 -47 -64 0 -20 56 -71 114 -105 26 -15 57 -37 67 -47 10 -10 25 -19 32 -19
7 0 38 -18 67 -40 29 -22 59 -40 65 -40 7 0 20 -9 30 -20 10 -11 24 -20 31
-20 7 0 26 -11 42 -25 17 -14 37 -25 46 -25 9 0 24 -9 33 -20 10 -11 23 -20
29 -20 7 0 25 -11 41 -24 15 -13 37 -25 47 -27 35 -7 30 -29 -6 -29 -24 0 -41
-7 -56 -25 -26 -30 -32 -31 -65 -5 -14 11 -32 20 -41 20 -14 0 -81 29 -116 51
-8 5 -26 14 -40 20 -14 6 -32 15 -40 20 -8 5 -37 20 -65 34 -27 15 -59 35 -71
46 -11 10 -28 19 -36 19 -9 0 -29 11 -45 24 -16 13 -48 34 -73 47 -24 13 -52
31 -62 41 -38 38 -75 15 -145 -89 -15 -23 -62 -77 -103 -120 -42 -43 -100
-109 -130 -148 -64 -83 -46 -63 -195 -216 -67 -68 -145 -153 -175 -189 -30
-36 -74 -87 -98 -113 -34 -37 -43 -53 -38 -71 7 -28 133 -153 197 -195 48 -32
139 -124 139 -141 0 -16 -40 -12 -46 5 -6 16 -44 21 -44 6 0 -5 7 -14 15 -21
39 -32 -6 -45 -55 -16 -19 11 -64 46 -100 78 -36 32 -68 58 -72 58 -14 0 -94
59 -121 89 -15 17 -31 31 -36 31 -5 0 -83 -74 -172 -165 -143 -145 -166 -165
-194 -165 -18 0 -44 9 -58 20 -14 11 -30 20 -36 20 -6 0 -11 5 -11 11 0 12
168 197 272 302 32 31 58 66 58 77 0 20 -4 25 -74 80 -86 67 -603 581 -674
670 -42 52 -108 129 -148 170 -39 42 -83 94 -97 116 -14 23 -50 68 -79 100
-30 33 -65 77 -78 99 -13 22 -39 56 -57 75 -19 19 -46 55 -60 80 -14 25 -39
59 -56 75 -16 17 -36 44 -43 62 -8 17 -28 46 -45 65 -17 18 -37 48 -45 66 -17
38 -38 41 -68 10 -12 -13 -89 -86 -171 -163 -82 -77 -212 -202 -288 -277 -77
-76 -145 -138 -151 -138 -16 0 -66 59 -66 78 0 9 -10 26 -22 39 l-22 24 159
157 c88 86 235 228 328 315 92 87 167 162 167 165 0 4 -18 31 -40 60 -22 29
-40 58 -40 66 0 7 -9 21 -20 31 -11 10 -20 26 -20 36 0 10 -6 24 -14 31 -7 8
-21 27 -30 43 -9 17 -28 48 -41 70 -13 22 -31 54 -39 71 -8 17 -22 36 -30 44
-9 7 -16 22 -16 35 0 12 -9 30 -20 40 -11 10 -20 27 -20 37 0 10 -11 29 -25
42 -14 13 -25 34 -25 49 0 16 -8 31 -20 37 -11 6 -20 19 -20 30 0 29 -11 50
-26 50 -9 0 -14 -11 -14 -28 0 -51 -29 -72 -99 -72 -34 0 -61 -4 -61 -10 0 -5
-18 -10 -39 -10 -22 0 -41 -5 -43 -12 -3 -8 -23 -11 -56 -9 -29 1 -52 -1 -51
-6 5 -26 -4 -33 -40 -33 -22 0 -42 -4 -45 -8 -3 -5 -20 -7 -38 -6 -45 3 -77
-32 -75 -83 3 -74 -3 -133 -14 -133 -5 0 -9 12 -8 28 4 56 -1 143 -9 138 -4
-2 -14 -1 -22 4 -10 6 -15 37 -18 102 -3 72 -9 101 -25 128 -21 33 -21 48 -25
502 -4 459 -4 469 17 517 16 37 21 70 21 132 0 64 4 87 17 101 12 14 19 42 21
91 3 51 10 79 23 96 13 16 19 40 19 75 0 29 7 59 15 70 8 11 15 41 15 66 0 33
6 52 19 64 11 10 21 36 24 62 3 27 13 55 26 68 11 12 21 30 21 40 0 10 9 29
20 43 11 14 20 35 20 46 0 11 9 34 19 51 10 17 22 46 26 64 3 17 10 32 15 32
5 0 14 17 21 38 6 20 20 48 30 61 11 13 19 31 19 41 0 9 9 25 20 35 11 10 20
23 20 29 0 6 16 35 35 65 19 29 35 61 35 72 0 10 9 28 19 38 11 11 27 33 35
50 9 16 34 50 56 76 22 26 47 61 56 78 9 18 33 50 54 72 21 22 55 65 76 95 37
55 217 255 264 294 14 12 79 73 145 137 66 63 146 132 177 153 31 20 72 54 90
74 19 21 54 50 79 64 24 14 53 35 63 47 11 12 28 21 38 21 11 0 45 18 77 40
31 22 61 40 66 40 4 0 16 6 24 14 9 7 41 27 72 44 31 16 67 37 80 46 13 9 30
16 37 16 8 0 25 9 39 20 14 11 32 20 40 20 8 0 26 9 40 20 14 11 35 20 47 20
11 0 32 9 46 20 14 11 35 20 46 20 12 0 33 9 47 20 14 11 36 20 49 20 12 0 37
9 53 20 17 11 44 20 61 20 17 0 43 9 57 20 15 12 40 20 65 20 26 0 45 6 57 20
14 15 31 20 69 20 34 0 61 7 81 20 22 14 47 20 91 20 46 0 68 5 87 20 21 17
40 20 114 20 71 0 94 4 118 20 28 19 41 20 175 14 128 -6 174 -14 159 -28 -2
-2 -25 -6 -51 -8 -42 -4 -81 -18 -50 -18 7 0 12 -6 12 -14 0 -8 6 -16 13 -19
10 -3 10 -9 0 -26 -17 -28 -16 -60 2 -67 15 -6 21 -55 9 -67 -3 -3 -7 -26 -9
-51 -2 -40 0 -45 23 -51 l25 -6 -6 -135 c-4 -98 -2 -134 6 -134 9 0 9 -2 1 -8
-16 -10 -26 -57 -31 -147 -3 -55 -9 -82 -20 -90 -22 -16 -25 -170 -3 -170 12
0 16 16 18 75 2 60 7 79 25 98 17 19 22 37 24 99 1 55 7 81 20 95 12 14 19 43
23 106 3 60 10 95 23 112 13 18 17 44 17 103 0 55 6 92 19 125 14 32 21 78 23
146 4 93 6 100 32 122 23 21 37 24 105 24 64 0 81 -3 95 -19z m-8354 -621 c6
-11 8 -20 6 -20 -3 0 -10 9 -16 20 -6 11 -8 20 -6 20 3 0 10 -9 16 -20z m41
-67 c50 -85 271 -430 328 -513 33 -47 108 -155 140 -200 17 -25 47 -67 66 -95
19 -27 47 -68 64 -90 16 -22 46 -62 65 -90 37 -52 78 -107 194 -258 152 -198
242 -314 274 -351 18 -21 56 -68 85 -105 66 -83 55 -70 148 -179 44 -52 87
-104 95 -116 8 -12 28 -35 43 -52 16 -16 76 -85 135 -154 59 -68 137 -156 173
-195 36 -38 105 -115 154 -170 218 -245 346 -377 922 -952 277 -277 503 -507
503 -513 0 -20 27 -9 38 16 l12 25 235 -3 c267 -3 259 -1 250 -83 -9 -89 -7
-222 4 -243 13 -24 5 -52 -15 -52 -8 0 -14 -4 -14 -9 0 -27 -35 -13 -96 37
-38 31 -73 61 -79 68 -21 25 -126 104 -138 104 -7 0 -37 25 -67 55 -30 30 -62
55 -72 55 -10 0 -18 -3 -18 -6 0 -8 103 -104 112 -104 4 0 39 -30 77 -67 107
-104 324 -293 336 -293 3 0 23 -17 43 -37 21 -21 57 -54 81 -73 46 -36 135
-114 168 -146 10 -11 40 -37 65 -59 48 -42 55 -48 153 -129 32 -28 66 -57 75
-66 8 -8 60 -52 115 -97 119 -98 232 -192 378 -316 60 -51 114 -94 120 -96 7
-2 55 -41 107 -85 52 -45 115 -97 140 -116 25 -19 62 -48 82 -65 20 -16 47
-38 60 -47 39 -29 240 -185 293 -228 81 -65 234 -183 279 -214 22 -15 61 -45
86 -65 25 -21 72 -56 106 -78 33 -23 71 -53 85 -67 13 -14 29 -26 34 -26 11 0
28 -12 98 -69 23 -18 64 -49 92 -67 60 -41 141 -99 215 -154 128 -95 220 -160
225 -160 3 0 30 -18 58 -40 54 -43 122 -90 195 -137 24 -15 69 -47 99 -70 31
-24 60 -43 65 -43 5 0 31 -18 57 -40 26 -22 52 -40 58 -40 6 0 32 -17 59 -38
27 -21 69 -50 94 -65 25 -15 62 -41 83 -59 l37 -32 28 27 c27 26 30 26 115 20
48 -3 91 -11 97 -18 6 -7 6 -34 -1 -74 -12 -78 -12 -74 -10 -87 1 -12 123 -94
140 -94 5 0 14 -6 18 -13 10 -16 86 -67 100 -67 6 0 16 -7 23 -15 7 -8 39 -29
71 -47 33 -17 59 -35 59 -40 0 -5 19 -17 43 -27 23 -10 59 -33 81 -50 21 -17
43 -31 47 -31 5 0 32 -16 60 -35 27 -20 61 -40 75 -45 13 -5 24 -14 24 -19 0
-5 14 -14 31 -20 17 -6 53 -27 80 -46 27 -19 53 -35 57 -35 4 0 23 -11 41 -25
27 -19 38 -22 53 -14 19 10 19 23 15 332 -2 177 -10 375 -16 440 -14 137 -11
147 53 147 23 0 57 5 76 10 19 6 82 13 140 15 82 2 114 8 145 24 21 12 48 21
58 21 10 0 39 8 65 19 26 10 79 30 117 44 121 45 303 117 337 134 18 9 41 20
51 25 9 4 25 12 35 17 9 5 64 32 122 61 166 83 253 129 270 145 9 8 20 15 25
15 4 0 33 17 64 37 31 21 68 45 83 53 15 8 48 30 73 48 25 17 48 32 51 32 3 0
27 18 53 40 26 22 51 40 57 40 5 0 39 26 75 58 37 31 99 82 138 112 86 66 526
510 572 577 18 26 61 83 96 126 35 43 63 81 63 86 0 5 18 31 40 57 22 27 40
53 40 57 0 5 15 30 34 56 18 25 41 60 50 76 10 17 28 48 41 70 70 117 215 408
215 432 0 6 7 16 15 23 8 7 18 28 21 48 4 20 15 50 26 67 10 16 18 38 18 48 0
10 9 35 20 57 11 22 20 50 20 62 0 13 7 37 16 53 9 17 22 55 30 85 7 30 19 73
28 95 8 22 15 52 16 66 0 15 7 46 15 70 9 24 19 87 22 139 3 52 10 104 16 115
6 11 13 36 17 55 l6 35 89 -2 c125 -2 136 -8 181 -96 58 -114 49 -108 161
-112 54 -2 170 -8 258 -14 260 -17 471 -21 1445 -27 l925 -6 0 -25 0 -24 -505
0 c-278 1 -543 3 -590 6 -82 4 -853 17 -1190 19 -91 1 -229 -1 -307 -4 -187
-7 -181 -2 -227 -205 -238 -1061 -880 -1974 -1838 -2617 -415 -277 -912 -498
-1403 -623 -166 -42 -170 -44 -187 -76 -16 -31 -18 -72 -18 -419 0 -325 2
-389 15 -407 8 -12 49 -41 91 -65 43 -23 93 -53 113 -65 20 -12 54 -31 76 -42
70 -36 149 -81 165 -95 15 -13 41 -28 115 -65 45 -23 115 -62 195 -109 30 -18
62 -36 70 -41 8 -4 26 -14 40 -21 14 -8 39 -20 55 -27 17 -8 37 -19 45 -24 8
-5 26 -15 40 -21 14 -7 48 -26 75 -43 28 -17 79 -46 115 -64 36 -18 88 -46
115 -61 28 -16 57 -32 65 -35 8 -3 26 -12 40 -20 14 -7 54 -27 90 -44 36 -18
72 -36 80 -42 8 -5 22 -12 30 -15 8 -3 44 -20 80 -39 36 -18 94 -48 130 -65
36 -18 74 -37 85 -43 25 -14 88 -44 140 -68 22 -10 47 -23 55 -28 8 -5 78 -40
155 -76 77 -37 147 -71 155 -75 39 -22 118 -59 140 -65 14 -4 36 -16 49 -26
13 -11 32 -19 41 -19 10 0 23 -6 29 -14 7 -8 27 -18 44 -22 18 -4 48 -15 67
-25 19 -11 42 -19 51 -19 9 0 28 -9 42 -20 14 -11 32 -20 40 -20 8 0 26 -9 40
-20 14 -11 34 -20 45 -20 10 0 31 -9 45 -20 14 -11 33 -20 44 -20 10 0 33 -9
51 -20 18 -11 37 -20 43 -20 6 0 48 -18 92 -39 45 -22 93 -42 107 -46 26 -7
87 -34 152 -66 20 -11 44 -19 53 -19 9 0 28 -9 42 -20 14 -11 40 -20 58 -20
18 0 38 -7 45 -14 6 -8 28 -20 48 -27 20 -6 46 -18 57 -25 11 -8 32 -14 48
-14 16 0 42 -11 59 -25 16 -14 39 -25 50 -25 11 0 31 -9 45 -20 14 -11 39 -20
55 -20 17 0 41 -9 55 -20 14 -11 37 -20 52 -20 14 0 40 -9 56 -20 17 -11 44
-20 61 -20 18 0 38 -8 49 -20 12 -13 31 -20 55 -20 22 0 48 -8 63 -20 14 -11
40 -20 60 -20 19 0 45 -8 58 -19 13 -10 44 -22 69 -26 25 -4 53 -14 62 -22 9
-9 39 -18 65 -20 26 -3 53 -12 60 -20 7 -9 34 -18 60 -21 26 -3 59 -13 72 -23
13 -11 39 -19 58 -19 20 0 46 -9 60 -20 15 -11 41 -20 62 -20 20 0 47 -9 61
-20 16 -13 41 -20 70 -20 28 0 56 -8 75 -20 18 -12 47 -20 73 -20 29 0 53 -7
69 -20 17 -13 41 -20 72 -20 30 0 55 -7 71 -20 16 -13 41 -20 71 -20 31 0 55
-7 72 -20 18 -14 40 -20 76 -20 34 0 65 -8 97 -25 32 -17 63 -25 96 -25 28 0
59 -7 74 -16 14 -10 55 -19 97 -22 42 -3 86 -13 107 -23 22 -12 56 -19 95 -19
38 -1 74 -8 100 -20 28 -14 62 -19 113 -20 58 0 79 -4 99 -20 22 -17 41 -20
130 -20 79 0 112 -4 136 -17 24 -13 67 -19 182 -23 120 -4 155 -9 176 -23 25
-17 65 -18 560 -15 498 3 536 4 561 21 21 14 51 19 133 22 83 3 111 8 126 21
12 11 43 18 91 22 50 3 81 11 97 23 15 13 40 19 71 19 34 0 52 5 65 20 12 13
31 20 55 20 22 0 48 8 63 20 14 11 34 20 45 20 10 0 31 9 45 20 14 11 32 20
40 20 8 0 25 8 38 19 13 10 35 22 49 26 14 4 36 16 49 26 13 11 28 19 33 19 5
0 31 18 59 40 28 22 57 40 65 40 20 0 280 255 316 312 17 26 37 48 45 48 19 0
17 -5 -24 -72 -123 -196 -335 -388 -566 -511 -34 -18 -71 -38 -82 -44 -97 -52
-291 -124 -400 -147 -33 -8 -87 -21 -120 -30 -32 -9 -72 -16 -88 -16 -16 0
-55 -6 -86 -14 -56 -15 -115 -21 -266 -31 -44 -3 -129 -10 -190 -15 -141 -13
-307 -13 -415 0 -47 5 -173 14 -280 20 -107 5 -211 14 -230 19 -19 5 -90 14
-157 20 -67 6 -133 15 -147 21 -14 5 -73 14 -132 20 -59 6 -115 15 -124 20 -8
5 -54 14 -100 20 -47 6 -105 17 -130 25 -25 7 -67 16 -95 20 -27 3 -70 12 -95
20 -25 8 -70 18 -100 24 -107 20 -227 48 -240 56 -8 5 -44 14 -80 21 -36 7
-105 25 -155 39 -49 15 -115 33 -145 40 -52 13 -75 20 -215 65 -33 10 -76 22
-95 25 -19 4 -40 11 -45 16 -6 4 -33 13 -60 19 -28 6 -72 19 -100 29 -78 29
-116 42 -170 57 -27 7 -59 18 -70 23 -24 11 -103 38 -166 56 -26 7 -60 20 -77
29 -17 9 -38 16 -47 16 -9 0 -30 7 -48 17 -18 9 -45 20 -62 24 -41 11 -144 47
-180 63 -49 22 -140 56 -150 56 -6 0 -26 8 -45 19 -19 10 -46 21 -60 25 -32
10 -222 83 -275 106 -22 10 -61 28 -86 39 -25 12 -51 21 -56 21 -6 0 -37 12
-69 26 -71 31 -120 53 -194 84 -97 41 -188 81 -280 122 -25 12 -63 29 -85 38
-72 32 -149 67 -225 103 -41 19 -102 47 -135 62 -132 60 -227 106 -640 312
-236 118 -484 243 -550 279 -66 36 -138 74 -160 85 -22 11 -76 40 -120 65 -44
24 -98 53 -120 64 -22 11 -47 24 -55 29 -25 17 -152 87 -215 120 -77 41 -189
105 -250 142 -16 11 -43 26 -60 34 -16 8 -48 26 -70 40 -22 13 -56 33 -75 43
-19 11 -83 48 -143 83 -104 62 -145 86 -217 129 -19 11 -53 32 -75 45 -22 14
-68 42 -103 62 -35 21 -73 44 -85 51 -12 7 -42 26 -67 42 -25 16 -61 39 -80
50 -19 11 -48 29 -65 40 -16 11 -46 29 -65 40 -19 11 -48 29 -65 40 -16 11
-46 29 -65 40 -19 11 -73 45 -120 75 -47 31 -139 90 -205 133 -98 63 -480 315
-535 352 -54 36 -208 142 -289 198 -242 166 -343 237 -433 301 -43 31 -137 99
-209 151 -72 52 -151 109 -174 125 -86 60 -467 345 -660 493 -258 198 -498
384 -505 392 -3 4 -50 42 -105 85 -55 44 -102 82 -105 85 -3 3 -52 44 -110 90
-163 130 -290 234 -336 275 -6 6 -31 26 -55 46 -79 66 -273 230 -329 279 -241
208 -323 280 -450 394 -80 71 -149 134 -155 140 -5 6 -55 51 -110 101 -55 49
-131 119 -170 156 -38 36 -113 105 -165 154 -272 256 -713 693 -1001 995 -271
283 -674 728 -826 912 -21 25 -104 124 -184 220 -291 347 -648 812 -872 1138
-46 67 -306 459 -323 488 -26 44 -138 231 -191 320 -23 40 -43 75 -43 77 0 13
10 2 31 -32z m12661 -1580 c74 -163 145 -414 192 -678 40 -224 41 -238 17
-259 -17 -16 -31 -18 -81 -13 -33 3 -72 13 -86 22 -23 15 -24 20 -17 63 4 26
8 146 7 267 -1 189 -5 243 -28 385 -15 91 -31 181 -36 201 -11 40 -13 79 -5
79 3 0 20 -30 37 -67z m-3692 -4073 c0 -5 -2 -10 -4 -10 -3 0 -8 5 -11 10 -3
6 -1 10 4 10 6 0 11 -4 11 -10z m-1274 -998 c-9 -9 -37 8 -31 18 5 8 11 7 21
-1 8 -6 12 -14 10 -17z m11764 -3917 c0 -8 -4 -15 -10 -15 -5 0 -10 7 -10 15
0 8 5 15 10 15 6 0 10 -7 10 -15z"/>
<path d="M9430 13921 c0 -5 7 -11 15 -15 9 -3 15 0 15 9 0 8 -7 15 -15 15 -8
0 -15 -4 -15 -9z"/>
<path d="M9482 13878 c2 -6 10 -14 16 -16 7 -2 10 2 6 12 -7 18 -28 22 -22 4z"/>
<path d="M9558 13792 c129 -149 242 -250 242 -216 0 4 -38 44 -85 89 -47 46
-85 88 -85 94 0 6 -7 11 -15 11 -8 0 -19 9 -25 20 -6 11 -17 20 -24 20 -8 0
-16 9 -19 20 -3 11 -13 20 -22 20 -12 0 -3 -17 33 -58z"/>
<path d="M9985 13399 c11 -34 86 -120 229 -264 69 -69 126 -135 126 -145 0
-10 11 -25 25 -34 15 -10 25 -26 25 -40 0 -12 9 -31 20 -41 11 -10 20 -24 20
-31 0 -7 18 -35 40 -63 22 -28 40 -57 40 -65 0 -8 15 -31 34 -50 18 -20 40
-50 47 -67 7 -17 27 -45 44 -63 18 -17 39 -45 48 -62 9 -18 45 -63 79 -100 35
-38 81 -94 102 -124 51 -72 346 -362 414 -407 29 -19 86 -66 127 -103 41 -37
89 -74 107 -83 18 -9 49 -31 68 -50 20 -19 51 -41 70 -50 19 -8 46 -26 60 -39
14 -14 41 -32 61 -41 19 -8 51 -29 71 -46 20 -17 42 -31 50 -31 9 0 27 -9 41
-20 14 -11 29 -20 34 -20 5 0 32 -16 62 -35 29 -19 63 -38 76 -41 13 -3 31
-14 41 -25 9 -10 27 -19 39 -19 12 0 30 -9 40 -20 10 -11 27 -20 37 -20 11 0
31 -9 45 -20 14 -11 34 -20 44 -20 10 0 39 -11 65 -25 26 -14 53 -25 61 -25 8
0 26 -9 40 -20 14 -11 35 -20 46 -20 11 0 28 -7 37 -15 10 -9 35 -19 56 -22
22 -3 50 -14 63 -25 13 -10 40 -18 61 -18 23 0 46 -8 60 -20 15 -13 37 -20 65
-20 29 0 47 -6 60 -20 14 -16 31 -20 77 -20 37 0 68 -6 83 -16 29 -19 69 -15
73 8 2 12 -6 19 -33 24 -19 3 -40 14 -45 24 -5 10 -21 21 -35 24 -25 6 -127
76 -160 110 -9 9 -21 16 -28 16 -6 0 -32 18 -58 40 -26 22 -52 40 -57 40 -5 0
-47 29 -93 65 -182 139 -210 160 -237 174 -15 8 -59 40 -98 73 -39 32 -74 58
-78 58 -4 0 -43 28 -86 63 -44 34 -115 89 -160 122 -44 33 -103 78 -131 100
-28 22 -72 55 -98 73 -52 38 -131 101 -146 117 -5 6 -30 24 -55 40 -25 16 -69
51 -98 77 -30 27 -77 64 -105 83 -29 19 -74 55 -102 80 -27 26 -72 62 -100 80
-27 19 -90 70 -140 114 -49 45 -94 81 -99 81 -5 0 -48 35 -95 78 -47 43 -98
85 -113 94 -23 15 -261 217 -313 266 -11 11 -30 24 -42 31 -13 6 -23 18 -23
26 0 8 -25 31 -56 50 -31 20 -100 78 -152 128 -89 87 -129 123 -168 156 -15
12 -16 12 -9 -10z"/>
<path d="M13220 10873 c1 -18 61 -73 80 -73 27 0 25 28 -3 39 -13 5 -29 16
-36 25 -14 16 -41 22 -41 9z"/>
<path d="M13346 10792 c-3 -5 5 -18 18 -29 13 -12 25 -25 27 -30 7 -17 67 -53
89 -53 28 0 23 32 -6 40 -11 3 -27 11 -35 17 -38 33 -77 63 -82 63 -3 0 -8 -4
-11 -8z"/>
<path d="M13510 10666 c0 -21 70 -78 87 -72 8 3 17 6 19 6 2 0 4 6 4 14 0 8
-10 18 -22 22 -13 3 -31 15 -41 25 -21 22 -47 25 -47 5z"/>
<path d="M13640 10577 c0 -7 13 -26 29 -41 23 -22 36 -27 55 -22 36 9 32 23
-9 40 -19 8 -35 20 -35 25 0 6 -9 11 -20 11 -11 0 -20 -6 -20 -13z"/>
<path d="M13760 10500 c0 -6 15 -27 33 -46 30 -33 36 -35 56 -25 27 15 23 35
-7 39 -12 2 -27 12 -32 23 -11 20 -50 27 -50 9z"/>
<path d="M13940 17824 c-6 -14 -10 -51 -10 -81 0 -31 -3 -53 -7 -50 -11 12
-32 -27 -33 -63 -1 -37 -18 -87 -20 -60 -2 23 -30 -62 -30 -91 0 -14 -8 -33
-17 -42 -51 -47 -64 -57 -73 -57 -5 0 -10 -11 -10 -25 0 -15 -12 -37 -30 -53
-16 -16 -30 -38 -30 -49 0 -27 -10 -35 -27 -22 -7 6 -13 9 -13 5 0 -3 -11 -1
-25 4 -33 13 -60 3 -44 -16 6 -8 18 -14 26 -14 7 0 35 -20 61 -45 26 -25 51
-45 56 -45 5 0 20 -9 32 -21 l21 -20 22 36 c11 20 21 53 21 74 0 24 8 47 20
61 14 16 20 37 20 70 0 34 5 52 20 65 15 14 20 31 20 70 0 37 6 60 20 78 14
18 20 40 20 80 0 41 5 58 20 72 17 15 20 31 20 92 0 75 -12 95 -30 47z"/>
<path d="M13821 17494 c0 -11 3 -14 6 -6 3 7 2 16 -1 19 -3 4 -6 -2 -5 -13z"/>
<path d="M13532 17268 c5 -15 28 -23 28 -10 0 5 -7 13 -16 16 -10 4 -14 1 -12
-6z"/>
<path d="M13370 17064 c0 -8 6 -17 14 -20 8 -3 18 -19 21 -35 6 -25 0 -35 -42
-78 -26 -27 -66 -67 -87 -90 -21 -22 -43 -38 -47 -35 -5 3 -9 0 -9 -6 0 -16
-37 -62 -47 -58 -4 2 -15 -12 -24 -29 -9 -18 -18 -30 -21 -28 -2 3 -18 -11
-34 -31 -39 -49 -105 -128 -156 -187 -23 -26 -48 -57 -55 -67 -17 -25 -59 -26
-72 -3 -5 10 -13 15 -17 11 -8 -8 30 -60 92 -128 23 -25 82 -96 132 -158 118
-146 204 -242 218 -242 15 0 54 56 54 77 0 10 9 26 20 36 11 9 20 25 20 35 0
11 9 27 20 37 11 10 20 26 20 35 0 10 8 28 19 41 10 13 22 35 26 49 4 14 13
32 20 40 7 8 16 26 20 40 4 14 13 32 20 40 8 8 17 29 21 45 3 17 12 37 19 45
7 8 16 29 20 47 3 17 13 37 21 44 8 6 14 22 14 34 0 12 8 33 18 46 11 13 22
39 26 58 3 19 12 42 20 50 7 9 16 34 19 56 4 22 13 45 21 50 8 6 17 27 21 46
5 29 2 38 -22 59 -15 13 -48 35 -73 48 -25 13 -54 32 -65 42 -11 10 -46 29
-77 44 -32 14 -58 30 -58 35 0 5 -7 11 -15 15 -9 3 -15 0 -15 -10z"/>
<path d="M13868 16726 c-10 -13 -22 -43 -27 -66 -5 -23 -16 -49 -25 -59 -9
-10 -16 -29 -16 -43 0 -14 -9 -33 -20 -43 -11 -10 -20 -28 -20 -40 0 -12 -8
-33 -19 -46 -10 -13 -22 -38 -25 -56 -4 -17 -14 -37 -22 -44 -8 -6 -14 -16
-14 -22 0 -9 -56 -127 -79 -167 -5 -8 -14 -26 -20 -40 -6 -14 -15 -32 -20 -40
-6 -8 -17 -28 -25 -45 -26 -53 -46 -89 -70 -130 -14 -22 -31 -53 -39 -70 -8
-16 -21 -36 -30 -44 -10 -7 -17 -21 -17 -31 0 -20 197 -215 325 -320 50 -41
131 -113 180 -160 50 -48 115 -104 145 -126 30 -21 84 -65 119 -97 35 -32 78
-65 94 -74 17 -8 47 -31 68 -50 49 -45 100 -83 113 -83 6 0 30 -18 54 -40 24
-22 47 -40 52 -40 4 0 30 -17 57 -38 26 -21 71 -51 98 -67 28 -16 55 -35 60
-42 6 -7 21 -17 35 -23 14 -6 37 -18 51 -28 56 -37 87 -56 176 -108 35 -19 65
-40 69 -45 9 -16 24 -10 33 14 5 12 25 47 45 77 20 30 36 60 36 66 0 6 9 19
20 29 11 10 20 28 20 40 0 12 9 30 19 39 11 10 23 31 26 46 3 15 15 36 26 46
10 9 19 27 19 39 0 12 9 30 20 40 11 10 20 25 20 32 0 8 9 26 20 40 11 14 20
33 20 42 0 9 9 27 20 41 11 14 20 32 20 41 0 9 9 28 20 42 11 14 20 32 20 40
0 8 9 26 20 40 11 14 20 35 20 46 0 12 9 30 20 41 11 11 20 28 20 39 0 10 8
29 19 42 10 13 22 38 25 56 4 17 13 37 21 43 8 6 17 26 20 43 4 18 16 46 26
63 10 17 19 40 19 51 0 11 9 28 20 38 11 10 20 30 20 45 0 15 9 39 20 53 11
14 20 31 20 38 0 22 -53 69 -78 69 -13 0 -35 9 -49 20 -14 11 -34 20 -45 20
-10 0 -37 9 -59 20 -21 11 -57 29 -78 40 -22 11 -46 20 -54 20 -8 0 -26 9 -40
20 -14 11 -32 20 -40 20 -8 0 -25 8 -38 18 -13 11 -37 22 -53 26 -16 4 -41 16
-54 27 -14 10 -31 19 -39 19 -8 0 -26 9 -40 20 -14 11 -32 20 -40 20 -8 0 -26
9 -40 20 -14 11 -33 20 -43 20 -9 0 -25 9 -35 20 -10 11 -28 20 -40 20 -12 0
-30 9 -40 20 -10 11 -28 20 -40 20 -12 0 -30 9 -40 20 -10 11 -26 20 -35 20
-10 0 -28 8 -41 19 -13 10 -35 22 -49 26 -14 4 -32 13 -40 20 -8 7 -42 27 -75
44 -66 35 -82 44 -136 78 -19 13 -42 23 -51 23 -8 0 -21 6 -27 14 -7 8 -36 26
-66 42 -30 15 -62 35 -71 46 -10 10 -27 18 -39 18 -13 0 -28 7 -35 15 -7 8
-38 29 -69 47 -31 17 -60 38 -64 45 -4 7 -16 13 -26 13 -9 0 -26 7 -37 15 -26
20 -36 18 -56 -9z"/>
<path d="M12630 16196 c0 -8 7 -16 15 -20 8 -3 15 -14 15 -25 0 -11 7 -24 17
-29 14 -8 13 -12 -10 -27 -15 -9 -27 -26 -27 -36 0 -11 -4 -19 -8 -19 -4 0
-16 -15 -27 -32 -10 -18 -21 -35 -24 -38 -3 -3 -14 -22 -23 -42 -10 -21 -22
-38 -28 -38 -5 0 -10 -10 -10 -22 0 -13 -11 -36 -25 -52 -14 -16 -25 -35 -25
-41 0 -7 -7 -18 -15 -25 -8 -7 -15 -21 -15 -31 0 -11 -4 -19 -9 -19 -5 0 -15
-20 -22 -45 -7 -25 -18 -45 -24 -45 -11 0 -30 -38 -40 -81 -4 -18 -13 -25 -28
-25 -38 2 -35 -47 6 -97 19 -23 45 -62 58 -87 13 -25 41 -66 62 -91 20 -26 37
-52 37 -59 0 -7 19 -36 43 -64 23 -28 51 -68 62 -89 11 -21 23 -41 27 -43 7
-4 98 98 98 110 0 4 28 43 63 86 97 124 140 181 167 225 13 22 41 63 62 90 21
28 38 55 38 61 0 6 7 17 15 24 22 19 77 118 73 133 -5 22 -332 366 -445 470
-45 40 -53 44 -53 23z"/>
<path d="M12381 15634 c0 -11 3 -14 6 -6 3 7 2 16 -1 19 -3 4 -6 -2 -5 -13z"/>
<path d="M13246 15520 c-10 -22 -28 -53 -40 -68 -12 -15 -34 -47 -48 -72 -14
-25 -35 -54 -47 -64 -12 -11 -21 -24 -21 -30 0 -6 -27 -47 -60 -90 -33 -44
-60 -83 -60 -87 0 -4 -23 -34 -51 -66 -28 -32 -59 -74 -69 -93 -10 -19 -39
-57 -64 -85 -25 -27 -46 -54 -46 -58 0 -4 12 -20 26 -35 14 -15 42 -52 62 -82
19 -30 58 -78 85 -107 27 -28 63 -74 82 -102 18 -29 64 -84 102 -124 38 -40
107 -119 152 -175 112 -138 480 -508 621 -624 63 -53 129 -110 145 -128 17
-18 56 -50 89 -72 32 -22 83 -63 113 -90 30 -27 62 -48 71 -46 9 2 27 19 39
38 13 19 46 62 74 95 27 33 64 81 82 107 46 67 86 122 133 181 22 29 49 68 60
87 10 19 31 50 46 68 16 18 38 52 49 75 12 23 25 44 30 47 14 9 59 80 59 94 0
7 10 22 23 34 13 12 33 42 45 65 12 24 31 52 42 62 30 27 25 56 -14 88 -19 15
-39 27 -43 27 -4 0 -34 18 -66 40 -31 22 -63 40 -71 40 -7 0 -19 7 -26 15 -7
8 -38 29 -69 46 -31 18 -60 37 -66 43 -5 7 -36 27 -67 45 -32 18 -58 36 -58
40 0 4 -26 22 -57 41 -32 19 -71 48 -88 63 -16 16 -48 38 -69 49 -21 11 -60
39 -85 62 -25 23 -71 58 -101 78 -30 20 -73 55 -95 78 -22 23 -67 60 -100 83
-33 23 -103 82 -155 132 -52 50 -129 120 -170 155 -41 35 -123 108 -182 162
-58 54 -110 98 -115 98 -5 0 -17 -18 -27 -40z"/>
<path d="M12252 15533 c5 -25 28 -28 28 -4 0 12 -6 21 -16 21 -9 0 -14 -7 -12
-17z"/>
<path d="M12090 15309 c0 -11 5 -17 10 -14 6 3 10 13 10 21 0 8 -4 14 -10 14
-5 0 -10 -9 -10 -21z"/>
<path d="M12120 15251 c0 -10 7 -24 15 -31 19 -16 19 -66 0 -74 -8 -3 -20 -17
-27 -31 -6 -14 -16 -25 -22 -25 -6 0 -17 -13 -24 -29 -7 -16 -21 -31 -31 -34
-11 -3 -22 -18 -26 -36 -4 -17 -11 -31 -16 -31 -5 0 -14 -11 -19 -25 -7 -18
-17 -25 -35 -25 -19 0 -25 -5 -23 -17 2 -10 -3 -17 -9 -15 -7 1 -13 -7 -13
-18 0 -15 -7 -20 -25 -20 -27 0 -65 -27 -65 -47 0 -7 -6 -13 -13 -13 -8 0 -22
-9 -32 -20 -13 -14 -21 -17 -26 -9 -10 17 -40 3 -46 -21 -4 -16 -12 -19 -44
-17 -28 3 -39 -1 -39 -11 0 -7 -6 -20 -14 -28 -16 -16 -66 -19 -66 -5 0 5 -13
8 -29 6 -27 -4 -30 -1 -33 27 -4 38 -24 48 -33 17 -6 -17 -2 -27 14 -40 13
-10 21 -29 21 -47 0 -16 9 -37 20 -47 11 -10 20 -28 20 -39 0 -12 9 -34 20
-51 11 -16 20 -36 20 -43 0 -8 9 -25 20 -39 11 -14 20 -33 20 -43 0 -9 9 -25
20 -35 11 -10 20 -28 20 -40 0 -12 9 -30 20 -40 11 -10 20 -28 20 -40 0 -12 9
-30 20 -40 11 -10 20 -23 20 -29 0 -6 14 -33 31 -59 20 -33 36 -47 47 -45 10
2 63 52 118 113 54 60 164 177 244 260 80 82 165 177 189 210 24 33 71 88 104
122 l60 61 -37 45 c-20 24 -36 48 -36 54 0 5 -20 29 -45 54 -24 24 -45 47 -45
51 0 13 -58 93 -94 130 -20 20 -36 42 -36 48 0 17 -53 80 -67 80 -7 0 -13 -8
-13 -19z"/>
<path d="M11385 14800 c-7 -12 2 -30 16 -30 12 0 12 27 0 35 -5 3 -12 1 -16
-5z"/>
<path d="M11140 14711 c0 -12 5 -21 10 -21 6 0 10 6 10 14 0 8 -4 18 -10 21
-5 3 -10 -3 -10 -14z"/>
<path d="M12573 14607 c-23 -23 -64 -73 -92 -111 -27 -38 -110 -130 -184 -205
-73 -75 -195 -202 -271 -283 -134 -145 -137 -148 -130 -183 3 -20 24 -58 45
-85 22 -27 39 -54 39 -59 0 -5 17 -31 38 -58 21 -26 49 -66 62 -88 13 -22 36
-54 51 -71 14 -18 44 -58 65 -90 21 -32 53 -74 72 -93 18 -20 49 -61 69 -91
20 -30 66 -86 103 -125 36 -38 91 -104 122 -145 69 -94 739 -775 770 -784 19
-5 39 11 120 94 54 55 120 130 147 165 27 36 98 116 156 178 59 62 135 148
168 192 34 44 91 111 127 150 79 84 120 139 120 158 0 16 -140 138 -207 180
-23 14 -77 59 -120 99 -43 41 -112 100 -153 132 -104 82 -400 375 -535 531
-63 72 -146 163 -185 204 -39 41 -86 96 -103 122 -18 26 -57 74 -87 106 -30
32 -71 83 -91 113 -20 30 -45 63 -56 72 -18 17 -21 16 -60 -25z"/>
<path d="M13996 10673 c-3 -3 -3 -10 0 -14 7 -12 34 -11 34 0 0 11 -26 22 -34
14z"/>
<path d="M14073 10643 c-23 -8 -14 -32 15 -39 15 -4 30 -12 34 -18 4 -6 10 -7
14 -4 3 4 -1 14 -10 23 -9 9 -16 20 -16 25 0 11 -22 18 -37 13z"/>
<path d="M12375 4504 c-197 -30 -302 -70 -368 -143 -68 -76 -85 -207 -38 -299
55 -108 189 -152 466 -152 162 0 267 -13 303 -36 32 -21 30 -73 -6 -107 -39
-37 -115 -51 -237 -44 -111 7 -140 20 -164 75 l-15 32 -189 0 -190 0 7 -41
c10 -65 45 -136 82 -168 105 -93 410 -157 629 -133 195 21 343 71 408 136 93
92 103 287 19 378 -61 66 -173 90 -437 92 -155 1 -200 5 -243 20 -94 32 -106
92 -25 132 29 14 64 20 148 22 95 2 117 -1 165 -20 45 -19 57 -29 65 -55 l9
-33 188 0 188 0 0 28 c0 53 -31 133 -67 173 -81 90 -259 140 -508 144 -88 2
-173 1 -190 -1z"/>
<path d="M16465 4504 c-304 -45 -428 -137 -427 -319 0 -99 40 -169 128 -221
61 -36 117 -44 359 -53 243 -9 311 -21 327 -57 17 -36 1 -71 -44 -101 -40 -27
-46 -28 -172 -28 -151 0 -193 15 -211 73 l-9 32 -192 0 -191 0 8 -47 c23 -143
98 -208 297 -259 210 -53 388 -54 587 -4 184 46 255 95 290 200 34 103 19 218
-38 277 -68 72 -246 109 -459 97 -75 -4 -123 -2 -177 10 -96 20 -121 37 -121
79 0 29 6 37 43 57 36 21 58 25 154 28 103 4 116 2 168 -22 42 -19 59 -33 68
-56 l11 -30 188 0 187 0 -6 38 c-22 160 -105 233 -323 283 -72 17 -133 23
-255 24 -88 2 -173 1 -190 -1z"/>
<path d="M20730 4504 c-155 -26 -204 -40 -290 -82 -217 -105 -328 -300 -286
-502 23 -107 59 -172 139 -246 173 -159 464 -225 719 -160 52 13 113 33 136
45 l40 21 7 -30 7 -30 124 0 124 0 -2 258 -3 257 -317 3 -318 2 0 -95 0 -94
107 -3 107 -3 -44 -29 c-95 -63 -253 -59 -335 8 -82 68 -109 179 -64 269 29
58 46 75 103 104 42 22 61 25 143 24 126 -1 199 -34 224 -98 8 -23 11 -23 200
-23 l192 0 -6 33 c-10 66 -58 146 -124 207 -75 71 -161 113 -283 141 -84 18
-251 32 -300 23z"/>
<path d="M22455 4504 c-221 -32 -337 -86 -397 -182 -20 -32 -23 -50 -23 -139
0 -96 1 -103 30 -144 35 -49 110 -94 181 -110 27 -5 150 -14 274 -18 244 -9
295 -19 319 -62 12 -22 12 -29 0 -54 -23 -47 -67 -66 -171 -72 -162 -9 -258
23 -258 88 0 18 -8 19 -191 19 l-192 0 7 -57 c16 -134 111 -207 338 -260 95
-22 137 -26 263 -26 130 0 165 3 265 28 126 30 210 68 252 112 75 79 96 231
46 329 -22 41 -37 56 -85 82 -79 42 -162 54 -388 57 -146 2 -202 6 -243 19
-58 19 -79 46 -68 89 10 43 66 61 194 65 105 4 117 2 166 -22 37 -18 58 -35
66 -56 l12 -30 190 0 190 0 -7 47 c-9 63 -57 156 -94 182 -104 74 -265 113
-486 116 -88 2 -173 1 -190 -1z"/>
<path d="M19231 4479 c-189 -42 -348 -157 -421 -303 -34 -67 -35 -74 -35 -181
0 -106 2 -114 33 -176 33 -66 112 -157 167 -196 120 -83 246 -122 416 -130
114 -5 135 -3 229 21 134 35 229 85 306 161 210 208 183 513 -61 694 -155 116
-413 160 -634 110z m299 -280 c92 -41 140 -112 140 -205 0 -142 -116 -234
-277 -221 -243 19 -306 322 -88 423 66 31 161 32 225 3z"/>
<path d="M4800 4208 c0 -306 7 -354 61 -444 73 -121 209 -213 374 -254 113
-28 283 -24 384 9 138 46 265 141 324 242 63 107 67 136 67 441 l0 278 -190 0
-190 0 0 -257 c0 -272 -5 -314 -45 -361 -89 -106 -309 -89 -375 29 -25 43 -25
47 -28 317 l-3 272 -190 0 -189 0 0 -272z"/>
<path d="M6140 4000 l0 -480 180 0 180 0 0 273 1 272 267 -273 267 -273 188 1
187 0 0 480 0 480 -185 0 -185 0 0 -270 0 -270 -266 270 -267 270 -183 0 -184
0 0 -480z"/>
<path d="M7540 4000 l0 -480 190 0 190 0 0 480 0 480 -190 0 -190 0 0 -480z"/>
<path d="M8000 4473 c0 -3 17 -38 39 -77 49 -90 77 -144 444 -846 l13 -25 216
-3 216 -2 83 152 c113 209 124 229 181 338 28 52 95 176 149 276 54 99 99 183
99 187 0 4 -82 7 -182 7 l-183 0 -19 -33 c-20 -34 -248 -437 -296 -522 -16
-27 -32 -51 -37 -52 -5 -2 -26 29 -47 69 -21 40 -57 109 -81 153 -23 44 -75
143 -115 220 -40 77 -77 146 -83 153 -7 9 -60 12 -203 12 -107 0 -194 -3 -194
-7z"/>
<path d="M9520 4000 l0 -480 530 0 530 0 0 131 0 130 -340 -3 -340 -3 0 53 0
52 285 0 285 0 0 125 0 125 -285 0 -285 0 0 45 0 45 340 0 340 0 0 130 0 130
-530 0 -530 0 0 -480z"/>
<path d="M10690 4000 l0 -480 175 0 174 0 3 153 3 152 65 0 65 0 130 -152 130
-153 215 0 214 0 -36 38 c-75 78 -237 277 -230 283 4 3 31 15 61 25 192 67
261 332 125 483 -54 60 -141 107 -224 120 -38 6 -235 11 -467 11 l-403 0 0
-480z m798 214 c30 -19 31 -85 2 -114 -19 -19 -33 -20 -235 -20 l-215 0 0 75
0 74 123 4 c177 6 298 -1 325 -19z"/>
<path d="M13250 4000 l0 -480 185 0 185 0 0 480 0 480 -185 0 -185 0 0 -480z"/>
<path d="M13730 4330 l0 -150 200 0 200 0 0 -330 0 -330 185 0 185 0 0 330 0
330 195 0 195 0 0 150 0 150 -580 0 -580 0 0 -150z"/>
<path d="M15157 4458 c-8 -13 -42 -72 -75 -133 -58 -106 -73 -135 -177 -330
-74 -139 -114 -213 -165 -305 -26 -47 -57 -104 -69 -127 l-21 -43 184 0 185 0
38 70 38 70 260 0 260 0 38 -70 37 -70 186 0 185 0 -12 23 c-7 12 -95 175
-197 362 -102 187 -201 369 -220 405 -19 36 -47 88 -62 115 l-27 50 -186 3
c-184 2 -186 2 -200 -20z m223 -362 c0 -4 23 -48 50 -97 28 -49 50 -91 50 -94
0 -3 -56 -5 -125 -5 -69 0 -125 3 -125 6 0 3 21 44 48 92 26 48 53 99 61 114
13 25 15 26 27 10 7 -9 14 -21 14 -26z"/>
<path d="M17770 4000 l0 -480 480 0 480 0 0 135 0 135 -290 0 -290 0 0 345 0
345 -190 0 -190 0 0 -480z"/>
<path d="M21550 4000 l0 -480 185 0 185 0 0 480 0 480 -185 0 -185 0 0 -480z"/>
<path d="M23310 4330 l0 -150 200 0 200 0 0 -330 0 -330 185 0 185 0 0 330 0
330 195 0 195 0 0 150 0 150 -580 0 -580 0 0 -150z"/>
<path d="M24590 4000 l0 -480 185 0 185 0 0 480 0 480 -185 0 -185 0 0 -480z"/>
<path d="M25090 4000 l0 -480 185 0 185 0 0 188 1 187 70 -75 c38 -41 113
-125 167 -187 l97 -112 218 0 c172 -1 217 2 211 12 -5 6 -109 122 -234 255
-124 134 -225 247 -225 251 0 5 152 151 415 398 l45 43 -225 0 -225 0 -155
-155 -155 -155 -3 155 -3 155 -184 0 -185 0 0 -480z"/>
<path d="M8589 2065 c-74 -9 -116 -21 -178 -50 -133 -62 -184 -135 -185 -260
0 -93 33 -156 106 -204 76 -50 137 -61 393 -71 252 -9 300 -18 317 -56 17 -38
-13 -88 -66 -110 -84 -34 -270 -28 -333 12 -13 8 -25 29 -29 49 l-6 35 -192
-2 -191 -3 2 -38 c3 -49 36 -124 71 -160 129 -136 564 -190 853 -107 125 36
197 80 236 147 26 45 28 56 28 155 0 102 -1 108 -30 149 -60 86 -232 128 -465
114 -157 -10 -274 16 -301 66 -28 54 21 93 142 112 121 19 250 -19 279 -80
l15 -33 184 0 184 0 -7 62 c-12 114 -69 179 -204 229 -147 55 -400 73 -623 44z"/>
<path d="M11780 2065 c-126 -16 -218 -55 -286 -120 -64 -61 -79 -106 -71 -218
6 -88 16 -109 82 -162 74 -61 142 -75 410 -85 127 -5 246 -13 266 -19 51 -15
66 -51 42 -99 -15 -31 -27 -39 -73 -54 -101 -31 -275 -18 -320 24 -12 11 -23
33 -27 49 l-5 29 -191 0 -190 0 7 -61 c13 -126 88 -194 273 -249 167 -49 466
-51 630 -4 111 32 162 56 205 98 102 99 114 290 24 378 -71 71 -237 105 -446
93 -213 -13 -340 37 -302 120 23 50 192 79 302 51 80 -21 109 -39 122 -77 l10
-29 189 0 c214 0 200 -7 176 85 -28 108 -88 165 -217 211 -146 51 -397 67
-610 39z"/>
<path d="M21850 2065 c-133 -17 -233 -60 -298 -128 -44 -47 -51 -60 -61 -121
-18 -101 -1 -172 53 -226 22 -23 58 -51 78 -61 59 -30 197 -49 361 -49 164 0
272 -14 300 -38 23 -21 22 -77 -3 -102 -34 -34 -123 -53 -226 -48 -115 6 -164
28 -180 78 l-12 35 -192 3 -192 2 6 -37 c22 -118 56 -173 134 -216 190 -103
564 -127 810 -51 109 34 173 77 217 148 25 42 31 62 34 128 4 96 -15 153 -64
197 -75 65 -238 97 -440 86 -120 -6 -206 4 -263 32 -32 15 -37 24 -40 55 -3
33 1 40 29 57 51 31 161 46 242 32 96 -16 140 -39 152 -78 l9 -33 188 0 188 0
0 38 c-1 75 -45 158 -109 203 -126 91 -437 131 -721 94z"/>
<path d="M23753 2061 c-62 -10 -166 -50 -242 -94 -84 -47 -167 -137 -209 -224
-33 -71 -35 -81 -35 -178 0 -94 2 -107 32 -170 23 -50 52 -88 106 -141 81 -81
145 -117 275 -159 77 -24 99 -27 235 -27 135 0 158 3 235 27 122 39 196 81
271 155 147 146 180 342 88 523 -11 20 -49 68 -85 106 -67 71 -159 126 -279
166 -58 20 -306 29 -392 16z m287 -299 c39 -20 64 -41 88 -76 29 -43 32 -56
32 -121 0 -63 -3 -77 -29 -111 -43 -60 -84 -90 -142 -104 -125 -30 -253 22
-306 125 -25 47 -21 154 6 199 48 77 157 131 246 121 28 -3 75 -18 105 -33z"/>
<path d="M2028 2054 c-5 -4 -8 -223 -8 -486 l0 -478 315 0 c345 0 416 8 530
58 122 53 198 124 257 240 32 64 33 70 33 182 0 114 -1 118 -38 192 -65 132
-186 222 -362 269 -72 20 -112 22 -400 26 -176 3 -323 1 -327 -3z m647 -319
c60 -29 111 -88 121 -140 3 -18 1 -50 -5 -73 -28 -102 -108 -142 -286 -142
l-115 0 0 190 0 190 116 0 c103 0 121 -3 169 -25z"/>
<path d="M3515 1933 c-38 -71 -147 -271 -242 -446 -95 -175 -182 -336 -193
-357 l-20 -40 184 0 185 0 38 70 38 70 260 0 260 0 38 -70 38 -70 185 0 c101
0 184 2 184 4 0 2 -21 41 -46 87 -26 46 -63 116 -84 154 -20 39 -53 100 -73
138 -21 37 -53 97 -73 135 -20 37 -83 154 -141 260 l-105 192 -182 0 -182 0
-69 -127z m318 -343 c31 -60 57 -111 57 -114 0 -3 -56 -6 -125 -6 -69 0 -125
2 -125 5 0 10 123 225 129 225 3 0 32 -49 64 -110z"/>
<path d="M4527 2053 c-4 -3 -7 -222 -7 -485 l0 -478 190 0 190 0 2 268 3 267
260 -266 260 -266 193 -2 192 -1 -2 483 -3 482 -185 0 -185 0 -5 -269 -5 -268
-266 271 -266 271 -180 0 c-99 0 -183 -3 -186 -7z"/>
<path d="M6370 1575 l0 -485 458 0 c395 1 469 3 547 18 174 34 255 105 263
227 2 36 1 81 -2 101 -10 52 -77 114 -148 139 l-57 19 27 17 c40 25 78 70 91
108 15 47 14 145 -4 186 -28 68 -122 126 -232 144 -32 5 -257 10 -500 10
l-443 1 0 -485z m794 243 c50 -22 43 -108 -10 -128 -14 -6 -120 -10 -235 -10
l-209 0 0 75 0 75 215 0 c140 0 223 -4 239 -12z m66 -343 c26 -14 30 -21 30
-59 0 -31 -6 -48 -21 -62 -19 -17 -42 -19 -275 -22 l-254 -3 0 80 0 81 245 0
c201 0 251 -3 275 -15z"/>
<path d="M7757 2054 c-4 -4 -7 -223 -7 -486 l0 -478 185 0 185 0 -2 483 -3
482 -176 3 c-96 1 -178 -1 -182 -4z"/>
<path d="M9530 1575 l0 -485 185 0 185 0 0 265 c0 149 4 265 9 265 5 0 125
-119 266 -265 l258 -265 188 0 189 0 -2 483 -3 482 -182 3 -183 2 0 -270 c0
-157 -4 -270 -9 -270 -5 0 -128 122 -272 270 l-263 270 -183 0 -183 0 0 -485z"/>
<path d="M10940 1575 l0 -485 185 0 185 0 0 485 0 485 -185 0 -185 0 0 -485z"/>
<path d="M13150 1575 l0 -485 185 0 185 0 0 485 0 485 -185 0 -185 0 0 -485z"/>
<path d="M13657 2053 c-4 -3 -7 -222 -7 -485 l0 -478 185 0 185 0 0 273 0 272
266 -272 266 -273 189 0 189 0 -2 483 -3 482 -180 0 -180 0 -3 -274 -2 -273
-271 276 -271 276 -177 0 c-98 0 -181 -3 -184 -7z"/>
<path d="M15047 2053 c-4 -3 -7 -71 -7 -150 l0 -143 200 0 200 0 0 -335 0
-335 185 0 185 0 2 333 3 332 198 3 198 2 -3 148 -3 147 -576 3 c-316 1 -579
-1 -582 -5z"/>
<path d="M16320 1575 l0 -485 525 0 525 0 0 130 0 130 -340 0 -340 0 0 50 0
50 285 0 285 0 0 125 0 125 -285 0 -285 0 0 45 0 45 340 0 340 0 0 135 0 135
-525 0 -525 0 0 -485z"/>
<path d="M17490 1576 l0 -486 175 0 175 0 0 155 0 155 63 0 c60 0 63 -1 92
-38 16 -20 76 -90 133 -154 l104 -118 209 0 210 0 -107 128 c-59 70 -121 140
-136 156 -16 16 -25 32 -21 36 4 4 34 17 67 30 73 29 146 99 170 162 14 35 17
68 14 140 -3 86 -6 98 -36 145 -39 61 -112 113 -202 145 -63 21 -79 22 -487
26 l-423 4 0 -486z m773 223 c30 -16 37 -28 37 -70 0 -73 -2 -74 -244 -77
l-216 -3 0 80 0 81 201 0 c132 0 208 -4 222 -11z"/>
<path d="M18760 1575 l0 -485 185 0 185 0 0 265 c0 146 4 265 9 265 5 0 124
-119 266 -265 l257 -265 189 0 189 0 -2 483 -3 482 -182 3 -183 2 0 -270 c0
-158 -4 -270 -9 -270 -5 0 -128 122 -272 270 l-264 270 -182 0 -183 0 0 -485z"/>
<path d="M20567 1963 c-56 -101 -285 -521 -342 -628 -18 -33 -53 -99 -78 -147
-26 -47 -47 -89 -47 -92 0 -3 82 -6 183 -6 l182 0 35 68 35 67 264 0 265 0 35
-67 36 -68 182 0 c101 0 183 4 183 9 0 5 -31 64 -68 132 -38 68 -75 138 -84
154 -129 248 -352 651 -366 663 -11 8 -65 12 -188 12 l-173 0 -54 -97z m300
-375 l62 -113 -64 -3 c-36 -2 -94 -2 -129 0 l-64 3 61 113 c34 61 64 112 67
112 3 0 33 -51 67 -112z"/>
<path d="M22787 2054 c-4 -4 -7 -223 -7 -486 l0 -478 190 0 190 0 -2 483 -3
482 -181 3 c-99 1 -183 -1 -187 -4z"/>
<path d="M24667 2053 c-4 -3 -7 -222 -7 -485 l0 -478 190 0 190 0 0 268 0 267
267 -267 267 -268 183 0 183 0 0 485 0 485 -185 0 -185 0 0 -270 c0 -148 -1
-270 -3 -270 -2 0 -124 122 -272 270 l-269 270 -176 0 c-97 0 -180 -3 -183 -7z"/>
<path d="M26447 1923 c-41 -76 -90 -165 -108 -198 -18 -33 -47 -87 -64 -120
-17 -33 -48 -89 -67 -125 -19 -36 -55 -101 -78 -145 -24 -44 -63 -115 -87
-159 -24 -43 -43 -80 -43 -82 0 -2 83 -4 184 -4 l185 0 38 70 38 70 260 0 260
0 38 -70 38 -70 185 0 c101 0 184 1 184 3 0 2 -86 160 -191 352 -105 193 -218
402 -251 465 -34 63 -66 123 -72 133 -10 15 -30 17 -193 17 l-181 0 -75 -137z
m283 -255 c0 -5 23 -48 50 -98 28 -50 50 -92 50 -95 0 -3 -56 -5 -125 -5 -69
0 -125 3 -125 6 0 4 19 41 42 83 23 42 50 93 60 114 18 36 20 38 33 20 8 -10
15 -21 15 -25z"/>
<path d="M27470 1575 l0 -485 475 0 475 0 0 140 0 140 -290 0 -290 0 0 345 0
345 -185 0 -185 0 0 -485z"/>
</g>
</svg>
